<svg width="24" height="24" viewBox="0 0 24 24" fill="none" xmlns="http://www.w3.org/2000/svg">
<path fill-rule="evenodd" clip-rule="evenodd" d="M12 0.333344C5.54837 0.333344 0.333374 5.54834 0.333374 12C0.333374 18.4517 5.54837 23.6667 12 23.6667C18.4517 23.6667 23.6667 18.4517 23.6667 12C23.6667 5.54834 18.4517 0.333344 12 0.333344ZM12 21.3333C6.85504 21.3333 2.66671 17.145 2.66671 12C2.66671 6.85501 6.85504 2.66668 12 2.66668C17.145 2.66668 21.3334 6.85501 21.3334 12C21.3334 17.145 17.145 21.3333 12 21.3333ZM12 10.355L16.1884 6.16668L17.8334 7.81168L13.645 12L17.8334 16.1883L16.1884 17.8333L12 13.645L7.81171 17.8333L6.16671 16.1883L10.355 12L6.16671 7.81168L7.81171 6.16668L12 10.355Z" fill="#0C673B"/>
</svg>
